<?xml version="1.0" standalone="no"?>
<!DOCTYPE svg PUBLIC "-//W3C//DTD SVG 20010904//EN"
 "http://www.w3.org/TR/2001/REC-SVG-20010904/DTD/svg10.dtd">
<svg version="1.0" xmlns="http://www.w3.org/2000/svg"
 width="1300.000000pt" height="1300.000000pt" viewBox="0 0 1300.000000 1300.000000"
 preserveAspectRatio="xMidYMid meet">
<metadata>
Created by potrace 1.11, written by Peter Selinger 2001-2013
</metadata>
<g transform="translate(0.000000,1300.000000) scale(0.100000,-0.100000)"
fill="#000000" stroke="none">
<path d="M6508 11351 l-32 -28 -17 -649 c-10 -357 -19 -709 -21 -782 l-3 -132
143 0 142 0 -5 68 c-3 37 -10 272 -16 522 -6 250 -14 571 -17 713 l-7 259 -33
29 c-44 39 -90 39 -134 0z"/>
<path d="M6265 9588 c-13 -39 -105 -368 -105 -377 0 -8 133 -11 430 -11 337 0
430 3 430 13 0 6 -25 95 -54 197 l-53 185 -322 3 c-252 2 -322 0 -326 -10z"/>
<path d="M5698 8868 l-125 -183 509 -3 c279 -1 737 -1 1016 0 l508 3 -125 183
-124 182 -767 0 -766 0 -126 -182z"/>
<path d="M5340 8315 l0 -205 1250 0 1250 0 0 205 0 205 -1250 0 -1250 0 0
-205z"/>
<path d="M5080 7255 l0 -705 333 0 c329 0 334 0 377 -23 30 -16 51 -37 67 -67
l23 -43 0 -1036 0 -1036 50 -18 c38 -14 57 -28 78 -59 l27 -42 3 -1483 2
-1483 508 2 507 3 5 1485 c4 1148 8 1490 17 1506 21 36 72 73 111 80 20 4 40
12 44 18 4 6 8 477 8 1047 l0 1036 23 33 c12 18 35 43 50 54 28 20 41 21 408
24 l379 3 0 704 0 705 -1510 0 -1510 0 0 -705z m1288 473 c9 -9 12 -657 12
-2855 l0 -2843 -26 -12 c-23 -11 -29 -10 -45 11 -19 23 -19 97 -19 2845 0
2538 2 2824 16 2844 17 24 43 29 62 10z m220 0 c9 -9 12 -656 12 -2849 0
-2566 -2 -2839 -16 -2853 -20 -20 -33 -20 -56 1 -17 16 -18 117 -18 2849 0
2562 2 2834 16 2848 18 19 45 21 62 4z m216 -4 c14 -14 16 -286 16 -2846 0
-2621 -1 -2833 -17 -2850 -20 -22 -31 -23 -55 -1 -17 16 -18 117 -18 2845 0
1931 3 2835 10 2849 13 23 43 25 64 3z"/>
<path d="M4637 6393 c-4 -3 -7 -467 -7 -1030 l0 -1023 550 0 550 0 -2 1028 -3
1027 -541 3 c-297 1 -544 -1 -547 -5z"/>
<path d="M7390 5370 l0 -1030 545 0 545 0 0 1030 0 1030 -545 0 -545 0 0
-1030z"/>
<path d="M4457 4183 c-4 -3 -7 -667 -7 -1475 l0 -1468 715 0 715 0 1 1443 c0
793 2 1450 4 1461 9 48 40 46 -714 46 -389 0 -711 -3 -714 -7z"/>
<path d="M7210 2715 l0 -1475 715 0 715 0 0 1475 0 1475 -715 0 -715 0 0
-1475z"/>
</g>
</svg>
